<svg height="512pt" viewBox="0 -43 512 512" width="512pt" xmlns="http://www.w3.org/2000/svg"><path d="m500.179688 200.617188v169.515624c0 19.351563-15.527344 35.179688-34.496094 35.179688h-244.628906c-18.34375 0-33.40625-14.71875-34.34375-33.109375-.152344-.640625-.152344-1.429687-.152344-2.070313v-169.515624c0-19.347657 15.53125-35.175782 34.496094-35.175782h244.628906c18.988281 0 34.496094 15.828125 34.496094 35.175782zm0 0" fill="#b0bec5"/><path d="m412.117188 54.632812v210.710938c0 24.0625-19.691407 43.734375-43.734376 43.734375h-310.101562c-1.597656 0-3.175781 0-4.96875-.191406-20.863281-2.390625-37.375-19.691407-38.570312-40.960938-.191407-.789062-.191407-1.792969-.191407-2.582031v-210.710938c0-24.0625 19.6875-43.730468 43.730469-43.730468h310.125c24.042969 0 43.710938 19.691406 43.710938 43.730468zm0 0" fill="#eceff1"/><path d="m136.640625 85.332031c0 16.554688-13.421875 29.976563-29.972656 29.976563-16.554688 0-29.976563-13.421875-29.976563-29.976563 0-16.550781 13.421875-29.972656 29.976563-29.972656 16.550781 0 29.972656 13.421875 29.972656 29.972656zm0 0" fill="#ffc107"/><path d="m401.960938 212.054688v61.011718c0 25.8125-18.410157 36.265625-40.914063 36.265625h-242.09375c-1.492187 0-2.984375 0-4.648437-.210937l154.386718-193.28125c12.652344-14.507813 33.472656-14.507813 46.125 0zm0 0" fill="#388e3c"/><path d="m258.582031 298.410156h-204.503906c-1.234375 0-2.472656 0-3.859375-.148437-16.214844-1.855469-29.035156-15.296875-29.953125-31.808594l94.699219-73.363281c10.496094-10.496094 27.796875-10.496094 38.292968 0zm0 0" fill="#4caf50"/><path d="m464 426.667969h-245.332031c-26.476563 0-48-21.546875-48-48v-5.335938c0-8.832031 7.167969-16 16-16s16 7.167969 16 16v5.335938c0 8.808593 7.167969 16 16 16h245.332031c8.832031 0 16-7.191407 16-16v-181.335938c0-8.808593-7.167969-16-16-16h-5.332031c-8.832031 0-16-7.167969-16-16s7.167969-16 16-16h5.332031c26.476562 0 48 21.546875 48 48v181.335938c0 26.453125-21.523438 48-48 48zm0 0"/><path d="m379.796875 320h-332.925781c-25.835938 0-46.871094-21.011719-46.871094-46.871094v-226.257812c0-25.859375 21.035156-46.871094 46.871094-46.871094h332.90625c25.855468 0 46.890625 21.011719 46.890625 46.871094v226.238281c0 25.878906-21.035157 46.890625-46.871094 46.890625zm-332.925781-288c-8.195313 0-14.871094 6.65625-14.871094 14.871094v226.238281c0 8.214844 6.675781 14.871094 14.871094 14.871094h332.90625c8.191406 0 14.867187-6.65625 14.867187-14.871094v-226.238281c0-8.214844-6.675781-14.871094-14.867187-14.871094zm0 0"/><path d="m106.667969 128c-23.53125 0-42.667969-19.136719-42.667969-42.667969s19.136719-42.664062 42.667969-42.664062 42.664062 19.132812 42.664062 42.664062-19.132812 42.667969-42.664062 42.667969zm0-53.332031c-5.890625 0-10.667969 4.796875-10.667969 10.664062 0 5.867188 4.777344 10.667969 10.667969 10.667969 5.886719 0 10.664062-4.800781 10.664062-10.667969 0-5.867187-4.777343-10.664062-10.664062-10.664062zm0 0"/><path d="m16.425781 298.238281c-4.09375 0-8.191406-1.554687-11.304687-4.691406-6.25-6.25-6.25-16.382813 0-22.636719l96.425781-96.445312c14.589844-14.59375 38.316406-14.59375 52.90625 0l25.8125 25.792968 79.234375-95.128906c7.082031-8.488281 17.46875-13.417968 28.5-13.460937h.191406c10.964844 0 21.3125 4.78125 28.417969 13.144531l106.195313 123.878906c5.761718 6.699219 4.972656 16.8125-1.726563 22.574219-6.722656 5.757813-16.832031 4.949219-22.570313-1.730469l-106.242187-123.945312c-1.429687-1.6875-2.515625-1.558594-4.09375-1.921875-.917969 0-2.6875.257812-4.074219 1.941406l-90.476562 108.628906c-2.878906 3.4375-7.082032 5.527344-11.5625 5.742188-4.566406.53125-8.851563-1.496094-12.03125-4.671875l-38.1875-38.1875c-2.089844-2.089844-5.589844-2.089844-7.679688 0l-96.425781 96.445312c-3.117187 3.117188-7.210937 4.671875-11.308594 4.671875zm0 0"/></svg>